<svg width="98" height="99" viewBox="0 0 98 99" fill="none" xmlns="http://www.w3.org/2000/svg">
<g filter="url(#filter0_d_1_3)">
<path d="M93.296 85.032C93.296 86.9947 92.8693 88.8293 92.016 90.536C83.2267 89.9387 77.2533 89.64 74.096 89.64L60.656 90.536C60.656 88.5733 61.0827 86.7387 61.936 85.032C64.4107 84.4347 66.7573 83.5813 68.976 82.472C66.3307 68.904 64.7947 61.1813 64.368 59.304C54.384 59.048 47.7707 58.92 44.528 58.92C41.3707 58.92 37.6587 59.0907 33.392 59.432L22.128 82.472L33.136 85.032C33.136 86.9947 32.7093 88.8293 31.856 90.536C25.0293 89.9387 20.0373 89.64 16.88 89.64L4.72 90.536C4.72 88.5733 5.14667 86.7387 6 85.032C8.73067 84.264 11.248 83.0693 13.552 81.448C29.5093 53.288 42.2667 28.6267 51.824 7.464L50.8 3.368C54.4693 1.57599 58.3947 0.679993 62.576 0.679993C70.5973 36.9467 77.296 64.424 82.672 83.112L93.296 85.032ZM36.592 52.776C40.6027 53.032 44.6987 53.16 48.88 53.16C53.1467 53.16 57.84 53.0747 62.96 52.904C61.936 48.04 59.12 36.3493 54.512 17.832C49.9893 26.1093 44.016 37.7573 36.592 52.776Z" fill="#8AABDC"/>
<path d="M93.296 85.032H94.296V84.1965L93.4738 84.0479L93.296 85.032ZM92.016 90.536L91.9482 91.5337L92.6126 91.5789L92.9104 90.9832L92.016 90.536ZM74.096 89.64V88.64H74.0627L74.0295 88.6422L74.096 89.64ZM60.656 90.536H59.656V91.6049L60.7225 91.5338L60.656 90.536ZM61.936 85.032L61.7014 84.0599L61.2495 84.169L61.0416 84.5848L61.936 85.032ZM68.976 82.472L69.4232 83.3664L70.103 83.0266L69.9575 82.2806L68.976 82.472ZM64.368 59.304L65.3431 59.0824L65.1708 58.3243L64.3936 58.3043L64.368 59.304ZM33.392 59.432L33.3123 58.4352L32.744 58.4806L32.4936 58.9928L33.392 59.432ZM22.128 82.472L21.2296 82.0328L20.6778 83.1614L21.9015 83.446L22.128 82.472ZM33.136 85.032H34.136V84.2379L33.3625 84.058L33.136 85.032ZM31.856 90.536L31.7688 91.5322L32.4463 91.5915L32.7504 90.9832L31.856 90.536ZM16.88 89.64V88.64H16.8432L16.8065 88.6427L16.88 89.64ZM4.72 90.536H3.72V91.6124L4.79348 91.5333L4.72 90.536ZM6 85.032L5.72925 84.0693L5.30341 84.1891L5.10557 84.5848L6 85.032ZM13.552 81.448L14.1275 82.2658L14.3112 82.1365L14.422 81.941L13.552 81.448ZM51.824 7.464L52.7354 7.87558L52.8785 7.55874L52.7941 7.22146L51.824 7.464ZM50.8 3.368L50.3612 2.46943L49.6334 2.82483L49.8299 3.61053L50.8 3.368ZM62.576 0.679993L63.5524 0.464035L63.379 -0.320007H62.576V0.679993ZM82.672 83.112L81.711 83.3885L81.8827 83.9856L82.4942 84.0961L82.672 83.112ZM36.592 52.776L35.6955 52.3329L35.0304 53.6784L36.5283 53.774L36.592 52.776ZM62.96 52.904L62.9933 53.9034L64.184 53.8638L63.9386 52.698L62.96 52.904ZM54.512 17.832L55.4824 17.5905L54.8634 15.1032L53.6345 17.3525L54.512 17.832ZM92.296 85.032C92.296 86.844 91.9035 88.525 91.1216 90.0888L92.9104 90.9832C93.8352 89.1336 94.296 87.1453 94.296 85.032H92.296ZM92.0838 89.5383C83.2983 88.9412 77.2923 88.64 74.096 88.64V90.64C77.2144 90.64 83.1551 90.9361 91.9482 91.5337L92.0838 89.5383ZM74.0295 88.6422L60.5895 89.5382L60.7225 91.5338L74.1625 90.6378L74.0295 88.6422ZM61.656 90.536C61.656 88.724 62.0485 87.043 62.8304 85.4792L61.0416 84.5848C60.1168 86.4344 59.656 88.4227 59.656 90.536H61.656ZM62.1706 86.0041C64.7169 85.3895 67.1351 84.5105 69.4232 83.3664L68.5288 81.5776C66.3796 82.6522 64.1044 83.4799 61.7014 84.0599L62.1706 86.0041ZM69.9575 82.2806C67.3143 68.7236 65.7742 60.9792 65.3431 59.0824L63.3929 59.5256C63.8151 61.3834 65.347 69.0844 67.9945 82.6634L69.9575 82.2806ZM64.3936 58.3043C54.412 58.0484 47.7857 57.92 44.528 57.92V59.92C47.7556 59.92 54.356 60.0476 64.3424 60.3037L64.3936 58.3043ZM44.528 57.92C41.3366 57.92 37.5968 58.0924 33.3123 58.4352L33.4717 60.4288C37.7205 60.0889 41.4047 59.92 44.528 59.92V57.92ZM32.4936 58.9928L21.2296 82.0328L23.0264 82.9112L34.2904 59.8712L32.4936 58.9928ZM21.9015 83.446L32.9095 86.006L33.3625 84.058L22.3545 81.498L21.9015 83.446ZM32.136 85.032C32.136 86.844 31.7435 88.525 30.9616 90.0888L32.7504 90.9832C33.6752 89.1336 34.136 87.1453 34.136 85.032H32.136ZM31.9432 89.5398C25.1129 88.9422 20.084 88.64 16.88 88.64V90.64C19.9907 90.64 24.9458 90.9352 31.7688 91.5322L31.9432 89.5398ZM16.8065 88.6427L4.64651 89.5387L4.79348 91.5333L16.9535 90.6373L16.8065 88.6427ZM5.72 90.536C5.72 88.724 6.11255 87.043 6.89443 85.4792L5.10557 84.5848C4.18079 86.4344 3.72 88.4227 3.72 90.536H5.72ZM6.27075 85.9947C9.1097 85.1962 11.7302 83.9528 14.1275 82.2658L12.9765 80.6302C10.7658 82.1859 8.35163 83.3318 5.72925 84.0693L6.27075 85.9947ZM14.422 81.941C30.389 53.764 43.1617 29.0744 52.7354 7.87558L50.9126 7.05241C41.3716 28.1789 28.6297 52.812 12.682 80.955L14.422 81.941ZM52.7941 7.22146L51.7701 3.12546L49.8299 3.61053L50.8539 7.70653L52.7941 7.22146ZM51.2388 4.26656C54.7682 2.54294 58.543 1.67999 62.576 1.67999V-0.320007C58.2463 -0.320007 54.1705 0.609052 50.3612 2.46943L51.2388 4.26656ZM61.5996 0.89595C69.6222 37.1682 76.3262 64.6699 81.711 83.3885L83.633 82.8355C78.2658 64.1781 71.5725 36.7251 63.5524 0.464035L61.5996 0.89595ZM82.4942 84.0961L93.1182 86.0161L93.4738 84.0479L82.8498 82.1279L82.4942 84.0961ZM36.5283 53.774C40.561 54.0314 44.6783 54.16 48.88 54.16V52.16C44.7191 52.16 40.6443 52.0326 36.6557 51.778L36.5283 53.774ZM48.88 54.16C53.1597 54.16 57.8643 54.0744 62.9933 53.9034L62.9267 51.9046C57.8157 52.0749 53.1336 52.16 48.88 52.16V54.16ZM63.9386 52.698C62.91 47.8123 60.0889 36.1017 55.4824 17.5905L53.5416 18.0735C58.1511 36.5969 60.962 48.2677 61.9815 53.11L63.9386 52.698ZM53.6345 17.3525C49.1021 25.6476 43.1217 37.3098 35.6955 52.3329L37.4885 53.2191C44.9103 38.2049 50.8766 26.5711 55.3896 18.3115L53.6345 17.3525Z" fill="#074347"/>
</g>
<defs>
<filter id="filter0_d_1_3" x="0.720001" y="0.679993" width="96.576" height="97.856" filterUnits="userSpaceOnUse" color-interpolation-filters="sRGB">
<feFlood flood-opacity="0" result="BackgroundImageFix"/>
<feColorMatrix in="SourceAlpha" type="matrix" values="0 0 0 0 0 0 0 0 0 0 0 0 0 0 0 0 0 0 127 0" result="hardAlpha"/>
<feOffset dy="4"/>
<feGaussianBlur stdDeviation="2"/>
<feComposite in2="hardAlpha" operator="out"/>
<feColorMatrix type="matrix" values="0 0 0 0 0 0 0 0 0 0 0 0 0 0 0 0 0 0 0.25 0"/>
<feBlend mode="normal" in2="BackgroundImageFix" result="effect1_dropShadow_1_3"/>
<feBlend mode="normal" in="SourceGraphic" in2="effect1_dropShadow_1_3" result="shape"/>
</filter>
</defs>
</svg>
